<?xml version="1.0" encoding="utf-8"?>
<!-- Svg Vector Icons : http://www.onlinewebfonts.com/icon -->
<!DOCTYPE svg PUBLIC "-//W3C//DTD SVG 1.1//EN" "http://www.w3.org/Graphics/SVG/1.1/DTD/svg11.dtd">
<svg version="1.1" xmlns="http://www.w3.org/2000/svg" xmlns:xlink="http://www.w3.org/1999/xlink" x="0px" y="0px" viewBox="0 0 256 256" enable-background="new 0 0 256 256" xml:space="preserve">
<metadata> Svg Vector Icons : http://www.onlinewebfonts.com/icon </metadata>
<g><g><g><path fill="#000000" d="M26.6,10.4c-3.2,1-6,3.4-7.7,6.5c-1.2,2.3-1.2,7.5,0.1,10c1.2,2.2,3.5,4.6,5.3,5.3l1.3,0.6l0.2,45c0.1,40.4,0.2,45.4,1,49.8c2.9,17.3,9.4,32.7,19.5,46l2.9,3.9v16.1v16.2l2.1,2c4.9,4.8,20,13.5,30.4,17.6c29.5,11.8,62.9,11.8,92.6,0c10.1-4,24.6-12.3,30.2-17.3l2.1-1.8l0.2-16.5l0.2-16.5l2.6-3.5c10.3-13.6,16.9-29.5,19.6-47c1.1-7.3,1.1-21.3,0-28.6c-3.4-22-12.6-41-27.7-56.6c-15.7-16.3-36.1-26.8-58.8-30.4c-3.9-0.6-7.9-0.8-15.2-0.8c-10.6,0-16.5,0.7-25.9,3.2c-27.9,7.4-51.9,27-65,53c-1.6,3-2.9,5.6-3,5.7c-0.1,0.1-0.2-8.6-0.2-19.4V33.2l2.4-1.6c1.5-1,3-2.5,3.8-3.9c1.2-2,1.4-2.7,1.4-6c0-3.2-0.2-4-1.2-5.9C37.2,11.4,31.4,9,26.6,10.4z M31.3,18.4c3.6,1.9,2.4,7.3-1.7,7.3c-1.2,0-1.8-0.3-2.8-1.4c-1.6-1.8-1.5-3.4,0.1-5.1C28.4,17.8,29.7,17.5,31.3,18.4z M137,18.4c32.6,3.2,61.5,23.3,75.8,52.7c17.5,36,10.4,78.9-17.7,107.3c-24.2,24.4-58.2,33.7-91.6,25c-27.2-7.1-51.3-28-62.2-53.9c-10.9-25.7-10.2-53.7,1.8-78.5C60.4,35.7,98.1,14.5,137,18.4z M64.4,192.2c13.7,11.1,31.3,18.8,49.5,21.4c6.7,1,20.2,1.1,26.5,0.2c20.6-2.8,39.3-11.1,54.6-24.4l3.7-3.2l0.1,10c0.1,7.5,0,10.1-0.5,10.6c-1.3,1.6-12.1,8.2-18.6,11.4c-14.6,7.2-27.5,10.6-44.3,11.8c-15.5,1.1-33.2-1.4-47.9-6.8c-6.7-2.4-17.7-7.9-23.5-11.8c-7.9-5.2-7.1-3.5-7.1-15.3V186l2,1.7C60.1,188.6,62.5,190.7,64.4,192.2z"/><path fill="#000000" d="M88.4,49.7c-7.7,1.2-15.3,5.7-20.4,11.9c-5,6.1-7.9,11.8-12,23.8c-2.4,6.9-2.4,7-2.4,12.7c0,4.7,0.2,6.4,1,9c1.8,5.7,5,8.9,8.8,8.9c4.9,0,5.9-5.7,1.2-7.6c-2.3-1-3.2-4.1-3.2-10.4c0-4.6,0.1-5.2,2.2-11.1c1.2-3.4,3.4-8.8,5-12c2.5-5.1,3.3-6.2,6.8-9.8c4.6-4.7,8.8-7,14.1-7.7c3.5-0.5,4.4-0.2,5.4,1.8c1.3,2.5,1.1,4.4-0.7,6.4c-7.6,8.4-14.6,24.4-18.1,41.2c-2,9.6-2.6,15.8-2.9,27.6c-0.3,13.8,0,17.9,1.5,19.6c1.3,1.6,3.9,1.7,5.3,0.3c1-0.9,1-1.4,1.1-15.9c0.1-12.5,0.2-15.9,1.1-21.2c3.5-22.7,10.3-39,20.4-49.1c7.5-7.4,15.3-10.8,25.4-10.8c6.1,0,10.1,0.9,15.4,3.5c10.9,5.4,19.5,17,25.1,33.8c4.8,14.5,6.8,29.6,6.4,48.1c-0.2,10.7-0.2,11,0.7,11.8c1.5,1.3,2.5,1.5,4.2,0.8c2.6-1.1,2.7-1.7,2.7-17.3c0-15.1-0.5-19.8-2.8-31.2c-3.5-16.9-10.1-32-18.1-41.3c-1.8-2-1.8-2.2-1.4-4.3c0.7-3.8,1.9-4.6,6.2-3.9c5.3,0.9,9.5,3.1,14,7.7c3.5,3.5,4.3,4.7,6.8,9.8c1.6,3.2,3.8,8.7,5,12.2c2.1,6,2.2,6.8,2.2,11.1c0,6.2-1,9.1-3.5,10.4c-1.9,1-2.3,1.7-2.3,3.9c0,1,0.4,1.8,1.2,2.6c1,0.9,1.5,1,3.5,0.8c2.1-0.2,2.7-0.5,4.3-2.3c3.3-3.5,5.2-10.5,4.7-17.7c-0.4-6-5.8-21.1-10.1-28.4c-6.8-11.3-17.1-17.9-28.2-18.1c-3.2,0-4,0.1-5.8,1.2c-2,1.2-4.1,3.7-4.7,5.8l-0.4,1.1l-1.4-1c-2.7-1.8-9.8-5-12.5-5.8c-10.3-2.6-20.5-1.7-29.5,2.8c-2.3,1.1-4.8,2.4-5.6,3l-1.4,1l-0.4-1.1c-0.6-2-2.7-4.6-4.6-5.7C95.6,49.5,92,49.1,88.4,49.7z"/><path fill="#000000" d="M108.7,97.5c-5.2,2.5-5.7,10.1-0.8,13.4c5.6,3.8,13.4-1.2,12.1-7.8C119,98,113.3,95.2,108.7,97.5z"/><path fill="#000000" d="M139.8,97.7c-2.1,1.2-4,4.3-4,6.6c0,4.3,3.8,8,8.3,8c2.2,0,5.1-1.8,6.3-4c1-1.7,1.2-2.5,1-4.6C150.9,98,144.9,94.8,139.8,97.7z"/><path fill="#000000" d="M122.5,128.7c-5.9,1.7-10.1,6.3-10.1,11c0,4.9,3.5,8.9,9.9,11.1c0.8,0.3,0.8,0.3,0,1.2c-1.7,1.9-6.7,3.6-10.3,3.6c-1.8,0-3.5,1.9-3.5,3.9c0,1.9,1.2,3.4,3.2,3.7c3.7,0.7,12.1-2,15.1-4.8l1.2-1.2l1.3,1.2c1.8,1.8,5.7,3.5,9.4,4.3c5.8,1.2,8.8,0.1,8.8-3.3c0-2-1.7-3.9-3.5-3.9c-3.6,0-8.6-1.8-10.3-3.6c-0.8-0.9-0.8-1,0-1.2c8.4-2.9,11.8-9,8.6-15.4c-1.3-2.7-3.8-4.7-7.4-6.2C132.1,128.1,125.8,127.8,122.5,128.7z M133.4,137.2c3,1.5,3.1,3.4,0.2,5.2c-1.4,0.9-2.4,1.1-5.4,1.1c-5.2,0-8.6-1.8-7.9-4.3c0.3-0.9,2.3-2.3,4.3-2.9C126.7,135.6,131.3,136.1,133.4,137.2z"/><path fill="#000000" d="M54.8,152.7c-1.1,0.9-1.4,1.6-1.4,2.8c0,2,1.4,3.4,7.1,6.9c15.8,9.7,33.2,16.4,50.8,19.4c6.2,1,25.8,1.2,31.9,0.2c17.9-2.8,36.5-9.7,52.5-19.6c5.6-3.5,7-4.8,7-6.7c0-1.8-2.2-4.1-3.7-4.1c-0.6,0-2.9,1.2-5.2,2.7c-14.9,9.6-31.7,16.4-48.9,19.5c-4.7,0.9-7.1,1-16.8,1s-12.1-0.1-16.8-1c-17-3.1-34.2-10-48.9-19.5c-2.3-1.5-4.6-2.7-5.2-2.7C56.6,151.5,55.5,152.1,54.8,152.7z"/><path fill="#000000" d="M32.6,208.9c-13.1,8.2-21.5,19.5-22.4,30.8c-0.3,3.4-0.2,3.5,1.2,4.8c2.9,2.9,6.5,1,6.5-3.3c0-0.8,0.3-2.7,0.7-4.1c1.9-7.5,7.7-14.5,16.8-20.5c2.2-1.4,4.4-3,5-3.5c1.4-1.3,1.4-3.7-0.1-5.2C38.5,206.2,36.6,206.5,32.6,208.9z"/><path fill="#000000" d="M215.8,208c-1.5,1.5-1.6,3.9-0.1,5.2c0.6,0.5,2.8,2.1,5,3.5c10.3,6.7,16.5,15.3,17.3,23.7c0.3,3.3,0.7,4.2,2.4,5.1c1.6,0.9,2.9,0.6,4.3-0.8c1.1-1.1,1.3-1.8,1.3-3.4c0-5-2.5-12.1-6-17.3c-3.4-5-10.2-11.2-16.5-15.1C219.4,206.5,217.5,206.2,215.8,208z"/></g></g></g>
</svg>